<svg width="174" height="174" viewBox="0 0 174 174" fill="none" xmlns="http://www.w3.org/2000/svg">
<g clip-path="url(#clip0_807_7447)">
<path fill-rule="evenodd" clip-rule="evenodd" d="M122.969 131.082L98.7755 138.076L101.107 146.141L99.9396 146.478L97.0179 147.323C94.8067 147.962 93.2605 149.955 93.1909 152.256L92.8471 163.623C92.7384 167.218 96.1641 169.876 99.619 168.877L138.69 157.581C142.145 156.582 143.625 152.507 141.614 149.525L135.258 140.094C133.971 138.186 131.6 137.325 129.389 137.964L126.467 138.809L125.3 139.146L122.969 131.082Z" fill="#112437"/>
<mask id="mask0_807_7447" style="mask-type:alpha" maskUnits="userSpaceOnUse" x="92" y="131" width="51" height="39">
<path fill-rule="evenodd" clip-rule="evenodd" d="M122.969 131.082L98.7755 138.076L101.107 146.141L99.9396 146.478L97.0179 147.323C94.8067 147.962 93.2605 149.955 93.1909 152.256L92.8471 163.623C92.7384 167.218 96.1641 169.876 99.619 168.877L138.69 157.581C142.145 156.582 143.625 152.507 141.614 149.525L135.258 140.094C133.971 138.186 131.6 137.325 129.389 137.964L126.467 138.809L125.3 139.146L122.969 131.082Z" fill="#112437"/>
</mask>
<g mask="url(#mask0_807_7447)">
<g filter="url(#filter0_f_807_7447)">
<path fill-rule="evenodd" clip-rule="evenodd" d="M131.455 128.628L107.261 135.622L109.593 143.687L108.428 144.024L105.506 144.869C103.295 145.508 101.748 147.501 101.679 149.802L101.335 161.169C101.226 164.764 104.652 167.422 108.107 166.423L147.178 155.128C150.633 154.129 152.112 150.053 150.102 147.071L143.746 137.641C142.459 135.732 140.088 134.871 137.877 135.511L134.955 136.355L133.786 136.693L131.455 128.628Z" fill="#1D3F60"/>
</g>
<g style="mix-blend-mode:overlay" opacity="0.5" filter="url(#filter1_f_807_7447)">
<ellipse cx="131.262" cy="140.619" rx="12.4826" ry="13.5228" fill="white"/>
</g>
</g>
<path fill-rule="evenodd" clip-rule="evenodd" d="M84.9749 59.9026C85.4178 58.9935 86.7482 59.1081 87.029 60.0796L97.1585 95.1178C97.3012 95.6113 97.0805 96.1327 96.6566 96.423C93.2913 98.7282 91.6199 103.01 92.8147 107.143C94.3056 112.3 99.6949 115.272 104.852 113.781C110.009 112.29 112.981 106.901 111.49 101.744C110.296 97.6122 106.599 94.883 102.524 94.7279C102.011 94.7083 101.546 94.3852 101.403 93.8917L91.2736 58.853C90.9927 57.8814 92.0568 57.0746 92.9164 57.6072L131.641 81.599C131.994 81.8178 132.194 82.2163 132.16 82.6303L128.17 130.218C128.131 130.674 127.815 131.059 127.376 131.186L111.234 135.853L95.0932 140.519C94.6533 140.646 94.1806 140.489 93.9048 140.124L65.1376 102.006C64.8873 101.675 64.8443 101.231 65.0262 100.857L84.9749 59.9026Z" fill="#2563D8"/>
<mask id="mask1_807_7447" style="mask-type:alpha" maskUnits="userSpaceOnUse" x="64" y="57" width="69" height="84">
<path fill-rule="evenodd" clip-rule="evenodd" d="M84.9749 59.9026C85.4178 58.9935 86.7482 59.1081 87.029 60.0796L97.1585 95.1178C97.3012 95.6113 97.0805 96.1327 96.6566 96.423C93.2913 98.7282 91.6199 103.01 92.8147 107.143C94.3056 112.3 99.6949 115.272 104.852 113.781C110.009 112.29 112.981 106.901 111.49 101.744C110.296 97.6122 106.599 94.883 102.524 94.7279C102.011 94.7083 101.546 94.3852 101.403 93.8917L91.2736 58.853C90.9927 57.8814 92.0568 57.0746 92.9164 57.6072L131.641 81.599C131.994 81.8178 132.194 82.2163 132.16 82.6303L128.17 130.218C128.131 130.674 127.815 131.059 127.376 131.186L111.234 135.853L95.0932 140.519C94.6533 140.646 94.1806 140.489 93.9048 140.124L65.1376 102.006C64.8873 101.675 64.8443 101.231 65.0262 100.857L84.9749 59.9026Z" fill="#4070CE"/>
</mask>
<g mask="url(#mask1_807_7447)">
<g filter="url(#filter2_f_807_7447)">
<path fill-rule="evenodd" clip-rule="evenodd" d="M89.9098 59.1985C89.629 58.2269 88.2985 58.1124 87.8557 59.0215L67.907 99.9761C67.725 100.35 67.7681 100.794 68.0183 101.125L96.7855 139.242C97.0614 139.608 97.5341 139.765 97.9739 139.638L114.115 134.972L130.256 130.305C130.696 130.178 131.012 129.793 131.05 129.337L135.04 81.7492C135.075 81.3352 134.875 80.9368 134.521 80.7179L95.7972 56.7262C94.9376 56.1935 93.8735 57.0004 94.1544 57.9719L104.284 93.0108C104.427 93.5043 104.892 93.8275 105.405 93.8469C109.481 94.0013 113.178 96.7307 114.373 100.863C115.864 106.02 112.892 111.409 107.735 112.9C102.578 114.391 97.1885 111.419 95.6976 106.262C94.503 102.13 96.1737 97.8486 99.538 95.5432C99.9618 95.2528 100.182 94.7315 100.04 94.238L89.9098 59.1985ZM90.5556 53.4787C90.5556 53.4787 90.5556 53.4787 90.5556 53.4787V53.4787C90.5556 53.4787 90.5556 53.4787 90.5556 53.4787V53.4787C90.5556 53.4787 90.5556 53.4787 90.5556 53.4787V53.4787Z" fill="url(#paint0_linear_807_7447)"/>
</g>
<g style="mix-blend-mode:overlay" opacity="0.5" filter="url(#filter3_f_807_7447)">
<ellipse cx="112.721" cy="71.8707" rx="27.2348" ry="29.5043" fill="white"/>
</g>
</g>
<rect x="10.752" y="49.9764" width="145.581" height="4.41825" transform="rotate(-16.1245 10.752 49.9764)" fill="#112437"/>
<mask id="mask2_807_7447" style="mask-type:alpha" maskUnits="userSpaceOnUse" x="10" y="9" width="142" height="46">
<rect x="10.752" y="49.9764" width="145.581" height="4.41825" transform="rotate(-16.1245 10.752 49.9764)" fill="#112437"/>
</mask>
<g mask="url(#mask2_807_7447)">
<g filter="url(#filter4_f_807_7447)">
<rect x="10.043" y="47.5233" width="145.581" height="4.41825" transform="rotate(-16.1245 10.043 47.5233)" fill="#1D3F60"/>
</g>
</g>
<circle cx="10.9684" cy="51.5236" r="8.83649" transform="rotate(-16.1245 10.9684 51.5236)" fill="#6DA6FF"/>
<mask id="mask3_807_7447" style="mask-type:alpha" maskUnits="userSpaceOnUse" x="2" y="42" width="18" height="19">
<circle cx="10.9684" cy="51.5236" r="8.83649" transform="rotate(-16.1245 10.9684 51.5236)" fill="#6DA6FF"/>
</mask>
<g mask="url(#mask3_807_7447)">
<g filter="url(#filter5_f_807_7447)">
<circle cx="13.1422" cy="47.9055" r="8.83649" transform="rotate(-16.1245 13.1422 47.9055)" fill="#D4E5FF"/>
</g>
</g>
<circle cx="151.035" cy="11.0307" r="8.83649" transform="rotate(-16.1245 151.035 11.0307)" fill="#6DA6FF"/>
<mask id="mask4_807_7447" style="mask-type:alpha" maskUnits="userSpaceOnUse" x="142" y="2" width="18" height="18">
<circle cx="151.035" cy="11.0307" r="8.83649" transform="rotate(-16.1245 151.035 11.0307)" fill="#6DA6FF"/>
</mask>
<g mask="url(#mask4_807_7447)">
<g filter="url(#filter6_f_807_7447)">
<circle cx="153.209" cy="7.41292" r="8.83649" transform="rotate(-16.1245 153.209 7.41292)" fill="#D4E5FF"/>
</g>
</g>
<path d="M41.8297 100.207C33.1044 70.0264 50.4976 38.4869 80.6783 29.7616C110.859 21.0364 142.399 38.4296 151.124 68.6103L146.754 69.8736C138.726 42.1063 109.709 26.104 81.9416 34.1315C54.1743 42.159 38.172 71.1765 46.1995 98.9438L41.8297 100.207Z" fill="#112437"/>
<mask id="mask5_807_7447" style="mask-type:alpha" maskUnits="userSpaceOnUse" x="39" y="27" width="113" height="74">
<path d="M41.8297 100.207C33.1044 70.0264 50.4976 38.4869 80.6783 29.7616C110.859 21.0364 142.399 38.4296 151.124 68.6103L146.754 69.8736C138.726 42.1063 109.709 26.104 81.9416 34.1315C54.1743 42.159 38.172 71.1765 46.1995 98.9438L41.8297 100.207Z" fill="#112437"/>
</mask>
<g mask="url(#mask5_807_7447)">
<g filter="url(#filter7_f_807_7447)">
<path d="M41.1207 97.7543C32.3955 67.5735 49.7886 36.034 79.9693 27.3088C110.15 18.5835 141.69 35.9767 150.415 66.1574L146.045 67.4207C138.017 39.6534 109 23.6511 81.2327 31.6786C53.4653 39.7061 37.463 68.7236 45.4905 96.4909L41.1207 97.7543Z" fill="#1D3F60"/>
</g>
</g>
<rect x="30.916" y="94.2772" width="17.673" height="17.673" rx="2.20912" transform="rotate(-16.1245 30.916 94.2772)" fill="#6DA6FF"/>
<mask id="mask6_807_7447" style="mask-type:alpha" maskUnits="userSpaceOnUse" x="31" y="89" width="22" height="22">
<rect x="30.916" y="94.2772" width="17.673" height="17.673" rx="2.20912" transform="rotate(-16.1245 30.916 94.2772)" fill="#6DA6FF"/>
</mask>
<g mask="url(#mask6_807_7447)">
<g filter="url(#filter8_f_807_7447)">
<rect x="32.5488" y="91.9652" width="17.673" height="17.673" rx="2.20912" transform="rotate(-16.1245 32.5488 91.9652)" fill="#D4E5FF"/>
</g>
</g>
<rect x="140.08" y="62.7186" width="17.673" height="17.673" rx="2.20912" transform="rotate(-16.1245 140.08 62.7186)" fill="#6DA6FF"/>
<mask id="mask7_807_7447" style="mask-type:alpha" maskUnits="userSpaceOnUse" x="140" y="58" width="22" height="22">
<rect x="140.08" y="62.7186" width="17.673" height="17.673" rx="2.20912" transform="rotate(-16.1245 140.08 62.7186)" fill="#6DA6FF"/>
</mask>
<g mask="url(#mask7_807_7447)">
<g filter="url(#filter9_f_807_7447)">
<rect x="141.711" y="60.4066" width="17.673" height="17.673" rx="2.20912" transform="rotate(-16.1245 141.711 60.4066)" fill="#D4E5FF"/>
</g>
</g>
<rect x="70.0723" y="25.1437" width="17.673" height="17.673" rx="2.20912" transform="rotate(-16.1245 70.0723 25.1437)" fill="#6DA6FF"/>
<mask id="mask8_807_7447" style="mask-type:alpha" maskUnits="userSpaceOnUse" x="70" y="20" width="22" height="22">
<rect x="70.0723" y="25.1437" width="17.673" height="17.673" rx="2.20912" transform="rotate(-16.1245 70.0723 25.1437)" fill="#6DA6FF"/>
</mask>
<g mask="url(#mask8_807_7447)">
<g filter="url(#filter10_f_807_7447)">
<rect x="71.7031" y="22.8319" width="17.673" height="17.673" rx="2.20912" transform="rotate(-16.1245 71.7031 22.8319)" fill="#D4E5FF"/>
</g>
</g>
</g>
<defs>
<filter id="filter0_f_807_7447" x="92.496" y="119.791" width="67.3512" height="55.6802" filterUnits="userSpaceOnUse" color-interpolation-filters="sRGB">
<feFlood flood-opacity="0" result="BackgroundImageFix"/>
<feBlend mode="normal" in="SourceGraphic" in2="BackgroundImageFix" result="shape"/>
<feGaussianBlur stdDeviation="4.41825" result="effect1_foregroundBlur_807_7447"/>
</filter>
<filter id="filter1_f_807_7447" x="101.442" y="109.759" width="59.6392" height="61.7196" filterUnits="userSpaceOnUse" color-interpolation-filters="sRGB">
<feFlood flood-opacity="0" result="BackgroundImageFix"/>
<feBlend mode="normal" in="SourceGraphic" in2="BackgroundImageFix" result="shape"/>
<feGaussianBlur stdDeviation="8.66848" result="effect1_foregroundBlur_807_7447"/>
</filter>
<filter id="filter2_f_807_7447" x="64.6035" y="50.2867" width="73.6329" height="92.7546" filterUnits="userSpaceOnUse" color-interpolation-filters="sRGB">
<feFlood flood-opacity="0" result="BackgroundImageFix"/>
<feBlend mode="normal" in="SourceGraphic" in2="BackgroundImageFix" result="shape"/>
<feGaussianBlur stdDeviation="1.59598" result="effect1_foregroundBlur_807_7447"/>
</filter>
<filter id="filter3_f_807_7447" x="47.6602" y="4.54025" width="130.122" height="134.661" filterUnits="userSpaceOnUse" color-interpolation-filters="sRGB">
<feFlood flood-opacity="0" result="BackgroundImageFix"/>
<feBlend mode="normal" in="SourceGraphic" in2="BackgroundImageFix" result="shape"/>
<feGaussianBlur stdDeviation="18.913" result="effect1_foregroundBlur_807_7447"/>
</filter>
<filter id="filter4_f_807_7447" x="7.4894" y="4.53811" width="146.188" height="49.7832" filterUnits="userSpaceOnUse" color-interpolation-filters="sRGB">
<feFlood flood-opacity="0" result="BackgroundImageFix"/>
<feBlend mode="normal" in="SourceGraphic" in2="BackgroundImageFix" result="shape"/>
<feGaussianBlur stdDeviation="1.27678" result="effect1_foregroundBlur_807_7447"/>
</filter>
<filter id="filter5_f_807_7447" x="2.0941" y="36.8575" width="22.096" height="22.0959" filterUnits="userSpaceOnUse" color-interpolation-filters="sRGB">
<feFlood flood-opacity="0" result="BackgroundImageFix"/>
<feBlend mode="normal" in="SourceGraphic" in2="BackgroundImageFix" result="shape"/>
<feGaussianBlur stdDeviation="1.10456" result="effect1_foregroundBlur_807_7447"/>
</filter>
<filter id="filter6_f_807_7447" x="142.161" y="-3.63503" width="22.096" height="22.0959" filterUnits="userSpaceOnUse" color-interpolation-filters="sRGB">
<feFlood flood-opacity="0" result="BackgroundImageFix"/>
<feBlend mode="normal" in="SourceGraphic" in2="BackgroundImageFix" result="shape"/>
<feGaussianBlur stdDeviation="1.10456" result="effect1_foregroundBlur_807_7447"/>
</filter>
<filter id="filter7_f_807_7447" x="36.3146" y="22.5026" width="116.654" height="77.8053" filterUnits="userSpaceOnUse" color-interpolation-filters="sRGB">
<feFlood flood-opacity="0" result="BackgroundImageFix"/>
<feBlend mode="normal" in="SourceGraphic" in2="BackgroundImageFix" result="shape"/>
<feGaussianBlur stdDeviation="1.27678" result="effect1_foregroundBlur_807_7447"/>
</filter>
<filter id="filter8_f_807_7447" x="28.6565" y="83.1648" width="29.6705" height="29.6704" filterUnits="userSpaceOnUse" color-interpolation-filters="sRGB">
<feFlood flood-opacity="0" result="BackgroundImageFix"/>
<feBlend mode="normal" in="SourceGraphic" in2="BackgroundImageFix" result="shape"/>
<feGaussianBlur stdDeviation="2.20912" result="effect1_foregroundBlur_807_7447"/>
</filter>
<filter id="filter9_f_807_7447" x="137.819" y="51.6062" width="29.6705" height="29.6704" filterUnits="userSpaceOnUse" color-interpolation-filters="sRGB">
<feFlood flood-opacity="0" result="BackgroundImageFix"/>
<feBlend mode="normal" in="SourceGraphic" in2="BackgroundImageFix" result="shape"/>
<feGaussianBlur stdDeviation="2.20912" result="effect1_foregroundBlur_807_7447"/>
</filter>
<filter id="filter10_f_807_7447" x="67.8108" y="14.0315" width="29.6705" height="29.6704" filterUnits="userSpaceOnUse" color-interpolation-filters="sRGB">
<feFlood flood-opacity="0" result="BackgroundImageFix"/>
<feBlend mode="normal" in="SourceGraphic" in2="BackgroundImageFix" result="shape"/>
<feGaussianBlur stdDeviation="2.20912" result="effect1_foregroundBlur_807_7447"/>
</filter>
<linearGradient id="paint0_linear_807_7447" x1="132.06" y1="47.6849" x2="94.7647" y2="134.977" gradientUnits="userSpaceOnUse">
<stop stop-color="#D4E5FF"/>
<stop offset="1" stop-color="#82B3FF"/>
</linearGradient>
<clipPath id="clip0_807_7447">
<rect width="174" height="174" fill="white"/>
</clipPath>
</defs>
</svg>
