<svg width="174" height="174" viewBox="0 0 174 174" fill="none" xmlns="http://www.w3.org/2000/svg">
<g clip-path="url(#clip0_807_7442)">
<path d="M96.8282 100.254C97.3071 99.1628 96.8111 97.8904 95.7203 97.4115L50.0981 77.3822C49.0074 76.9033 47.735 77.3994 47.2561 78.4901L17.7235 145.759C16.9604 147.497 18.6529 149.302 20.4367 148.652L48.9478 138.267C50.0318 137.873 51.2346 138.401 51.6776 139.466L63.3291 167.483C64.058 169.236 66.5325 169.26 67.2957 167.522L96.8282 100.254Z" fill="#112437"/>
<mask id="mask0_807_7442" style="mask-type:alpha" maskUnits="userSpaceOnUse" x="17" y="77" width="81" height="92">
<path d="M96.8282 100.254C97.3071 99.1628 96.8111 97.8904 95.7203 97.4115L50.0981 77.3822C49.0074 76.9033 47.735 77.3994 47.2561 78.4901L17.7235 145.759C16.9604 147.497 18.6529 149.302 20.4367 148.652L48.9478 138.267C50.0318 137.873 51.2346 138.401 51.6776 139.466L63.3291 167.483C64.058 169.236 66.5325 169.26 67.2957 167.522L96.8282 100.254Z" fill="#112437"/>
</mask>
<g mask="url(#mask0_807_7442)">
<path d="M93.0625 99.2035C93.5085 98.12 93.0079 96.8785 91.935 96.4075L46.2675 76.3583C45.1768 75.8795 43.9044 76.3755 43.4255 77.4662L13.8803 144.763C13.1191 146.497 14.8021 148.301 16.5844 147.66L48.0906 136.345C49.176 135.955 50.3761 136.488 50.8146 137.555L62.0423 164.866C62.7749 166.647 65.2984 166.648 66.0318 164.866L93.0625 99.2035Z" fill="url(#paint0_linear_807_7442)"/>
</g>
<path d="M76.8932 99.9193C76.4247 98.824 76.9328 97.5564 78.028 97.0879L123.838 77.4924C124.934 77.0239 126.201 77.532 126.67 78.6273L155.563 146.173C156.309 147.918 154.6 149.708 152.822 149.041L124.411 138.386C123.331 137.981 122.123 138.497 121.67 139.558L109.753 167.464C109.007 169.21 106.533 169.211 105.786 167.465L76.8932 99.9193Z" fill="#112437"/>
<mask id="mask1_807_7442" style="mask-type:alpha" maskUnits="userSpaceOnUse" x="76" y="77" width="80" height="92">
<path d="M76.8932 99.9193C76.4247 98.824 76.9328 97.5564 78.028 97.0879L123.838 77.4924C124.934 77.0239 126.201 77.532 126.67 78.6273L155.563 146.173C156.309 147.918 154.6 149.708 152.822 149.041L124.411 138.386C123.331 137.981 122.123 138.497 121.67 139.558L109.753 167.464C109.007 169.21 106.533 169.211 105.786 167.465L76.8932 99.9193Z" fill="#112437"/>
</mask>
<g mask="url(#mask1_807_7442)">
<path d="M80.668 98.9049C80.2323 97.8171 80.7447 96.5805 81.822 96.1196L127.678 76.5047C128.773 76.0362 130.041 76.5443 130.509 77.6396L159.414 145.214C160.159 146.955 158.459 148.742 156.683 148.085L125.285 136.471C124.204 136.071 122.999 136.593 122.55 137.655L111.064 164.858C110.314 166.633 107.791 166.61 107.074 164.821L80.668 98.9049Z" fill="url(#paint1_linear_807_7442)"/>
</g>
<mask id="mask2_807_7442" style="mask-type:alpha" maskUnits="userSpaceOnUse" x="23" y="3" width="127" height="126">
<path d="M79.3039 5.95819C83.2697 2.29806 89.3818 2.29806 93.3476 5.95819L98.1056 10.3495C100.479 12.5404 103.74 13.4977 106.921 12.938L113.298 11.8162C118.613 10.8812 123.755 14.1856 125.112 19.4088L126.741 25.6754C127.554 28.8018 129.779 31.3699 132.758 32.6191L138.729 35.1229C143.706 37.2098 146.245 42.7696 144.563 47.8975L142.545 54.0498C141.538 57.1192 142.022 60.4826 143.852 63.1441L147.522 68.4786C150.58 72.9249 149.711 78.9748 145.523 82.3794L140.499 86.464C137.993 88.5019 136.581 91.5928 136.683 94.8216L136.886 101.293C137.055 106.687 133.052 111.306 127.689 111.907L121.254 112.627C118.044 112.986 115.186 114.823 113.525 117.594L110.197 123.148C107.423 127.777 101.558 129.499 96.7222 127.105L90.9197 124.232C88.0248 122.798 84.6268 122.798 81.7318 124.232L75.9294 127.105C71.0931 129.499 65.2285 127.777 62.4546 123.148L59.1265 117.594C57.466 114.823 54.6074 112.986 51.3972 112.627L44.9626 111.907C39.5994 111.306 35.5968 106.687 35.7659 101.293L35.9688 94.8216C36.07 91.5928 34.6584 88.5019 32.152 86.464L27.1283 82.3794C22.941 78.9748 22.0712 72.9249 25.1297 68.4786L28.7991 63.1441C30.6299 60.4826 31.1135 57.1192 30.1067 54.0498L28.0888 47.8975C26.4069 42.7696 28.9459 37.2098 33.9227 35.1229L39.8938 32.6191C42.8728 31.3699 45.098 28.8018 45.9105 25.6754L47.5391 19.4088C48.8965 14.1856 54.0384 10.8812 59.3534 11.8162L65.7302 12.938C68.9117 13.4977 72.1721 12.5404 74.5459 10.3495L79.3039 5.95819Z" fill="#4070CE"/>
</mask>
<g mask="url(#mask2_807_7442)">
<path d="M79.3039 5.95819C83.2697 2.29806 89.3818 2.29806 93.3476 5.95819L98.1056 10.3495C100.479 12.5404 103.74 13.4977 106.921 12.938L113.298 11.8162C118.613 10.8812 123.755 14.1856 125.112 19.4088L126.741 25.6754C127.554 28.8018 129.779 31.3699 132.758 32.6191L138.729 35.1229C143.706 37.2098 146.245 42.7696 144.563 47.8975L142.545 54.0498C141.538 57.1192 142.022 60.4826 143.852 63.1441L147.522 68.4786C150.58 72.9249 149.711 78.9748 145.523 82.3794L140.499 86.464C137.993 88.5019 136.581 91.5928 136.683 94.8216L136.886 101.293C137.055 106.687 133.052 111.306 127.689 111.907L121.254 112.627C118.044 112.986 115.186 114.823 113.525 117.594L110.197 123.148C107.423 127.777 101.558 129.499 96.7222 127.105L90.9197 124.232C88.0248 122.798 84.6268 122.798 81.7318 124.232L75.9294 127.105C71.0931 129.499 65.2285 127.777 62.4546 123.148L59.1265 117.594C57.466 114.823 54.6074 112.986 51.3972 112.627L44.9626 111.907C39.5994 111.306 35.5968 106.687 35.7659 101.293L35.9688 94.8216C36.07 91.5928 34.6584 88.5019 32.152 86.464L27.1283 82.3794C22.941 78.9748 22.0712 72.9249 25.1297 68.4786L28.7991 63.1441C30.6299 60.4826 31.1135 57.1192 30.1067 54.0498L28.0888 47.8975C26.4069 42.7696 28.9459 37.2098 33.9227 35.1229L39.8938 32.6191C42.8728 31.3699 45.098 28.8018 45.9105 25.6754L47.5391 19.4088C48.8965 14.1856 54.0384 10.8812 59.3534 11.8162L65.7302 12.938C68.9117 13.4977 72.1721 12.5404 74.5459 10.3495L79.3039 5.95819Z" fill="#4070CE"/>
<g filter="url(#filter0_f_807_7442)">
<path d="M81.4602 3.15448C85.426 -0.505651 91.5381 -0.505651 95.5038 3.15448L100.262 7.54581C102.636 9.73668 105.896 10.694 109.078 10.1343L115.454 9.01249C120.769 8.07745 125.911 11.3819 127.269 16.6051L128.897 22.8717C129.71 25.9981 131.935 28.5662 134.914 29.8154L140.885 32.3192C145.862 34.4061 148.401 39.9659 146.719 45.0938L144.701 51.2461C143.694 54.3155 144.178 57.6789 146.009 60.3404L149.678 65.6749C152.737 70.1212 151.867 76.1711 147.68 79.5757L142.656 83.6603C140.149 85.6982 138.738 88.7891 138.839 92.0179L139.042 98.4894C139.211 103.883 135.208 108.503 129.845 109.103L123.411 109.823C120.2 110.182 117.342 112.02 115.681 114.79L112.353 120.344C109.579 124.974 103.715 126.696 98.8784 124.301L93.0759 121.428C90.181 119.995 86.783 119.995 83.8881 121.428L78.0856 124.301C73.2493 126.696 67.3848 124.974 64.6108 120.344L61.2827 114.79C59.6223 112.02 56.7637 110.182 53.5534 109.823L47.1188 109.103C41.7556 108.503 37.7531 103.883 37.9222 98.4894L38.1251 92.0179C38.2263 88.7891 36.8147 85.6982 34.3083 83.6603L29.2845 79.5757C25.0973 76.1711 24.2274 70.1212 27.2859 65.6749L30.9554 60.3404C32.7861 57.6789 33.2697 54.3155 32.263 51.2461L30.245 45.0938C28.5631 39.9659 31.1022 34.4061 36.079 32.3192L42.05 29.8154C45.029 28.5662 47.2543 25.9981 48.0668 22.8717L49.6954 16.6051C51.0528 11.3819 56.1946 8.07745 61.5096 9.01249L67.8865 10.1343C71.0679 10.694 74.3283 9.73668 76.7022 7.54581L81.4602 3.15448Z" fill="#82B3FF"/>
</g>
<g filter="url(#filter1_f_807_7442)">
<circle cx="83.8445" cy="69.0389" r="32.8933" fill="#4171CF"/>
</g>
<circle cx="86.4324" cy="66.6663" r="32.8933" fill="url(#paint2_linear_807_7442)"/>
<mask id="mask3_807_7442" style="mask-type:alpha" maskUnits="userSpaceOnUse" x="64" y="44" width="44" height="42">
<path d="M84.503 45.4215C85.2757 43.9571 87.373 43.9571 88.1456 45.4215L93.4334 55.4436C93.7313 56.0084 94.2744 56.4029 94.9036 56.5118L106.069 58.4437C107.701 58.726 108.349 60.7207 107.195 61.9081L99.2972 70.034C98.8522 70.4919 98.6448 71.1303 98.7356 71.7624L100.349 82.9785C100.584 84.6174 98.8875 85.8502 97.4017 85.1196L87.233 80.1195C86.66 79.8378 85.9887 79.8378 85.4157 80.1195L75.247 85.1196C73.7611 85.8502 72.0643 84.6174 72.3 82.9785L73.913 71.7624C74.0039 71.1303 73.7964 70.4919 73.3514 70.034L65.4538 61.9081C64.2998 60.7207 64.9479 58.726 66.5795 58.4437L77.745 56.5118C78.3742 56.4029 78.9173 56.0084 79.2153 55.4436L84.503 45.4215Z" fill="#D4E5FF"/>
</mask>
<g mask="url(#mask3_807_7442)">
<g style="mix-blend-mode:multiply">
<path d="M84.503 45.4215C85.2757 43.9571 87.373 43.9571 88.1456 45.4215L93.4334 55.4436C93.7313 56.0084 94.2744 56.4029 94.9036 56.5118L106.069 58.4437C107.701 58.726 108.349 60.7207 107.195 61.9081L99.2972 70.034C98.8522 70.4919 98.6448 71.1303 98.7356 71.7624L100.349 82.9785C100.584 84.6174 98.8875 85.8502 97.4017 85.1196L87.233 80.1195C86.66 79.8378 85.9887 79.8378 85.4157 80.1195L75.247 85.1196C73.7611 85.8502 72.0643 84.6174 72.3 82.9785L73.913 71.7624C74.0039 71.1303 73.7964 70.4919 73.3514 70.034L65.4538 61.9081C64.2998 60.7207 64.9479 58.726 66.5795 58.4437L77.745 56.5118C78.3742 56.4029 78.9173 56.0084 79.2153 55.4436L84.503 45.4215Z" fill="#050D14"/>
</g>
<g filter="url(#filter2_f_807_7442)">
<path d="M86.2823 43.9117C87.055 42.4473 89.1523 42.4473 89.9249 43.9117L95.2127 53.9339C95.5106 54.4986 96.0537 54.8932 96.6829 55.002L107.848 56.934C109.48 57.2163 110.128 59.2109 108.974 60.3983L101.077 68.5242C100.631 68.9821 100.424 69.6206 100.515 70.2526L102.128 81.4687C102.364 83.1076 100.667 84.3404 99.181 83.6098L89.0123 78.6098C88.4393 78.328 87.768 78.328 87.195 78.6098L77.0263 83.6098C75.5404 84.3404 73.8436 83.1076 74.0793 81.4687L75.6923 70.2526C75.7832 69.6206 75.5757 68.9821 75.1307 68.5242L67.2331 60.3983C66.0791 59.2109 66.7272 57.2163 68.3587 56.934L79.5243 55.002C80.1535 54.8932 80.6966 54.4986 80.9946 53.9339L86.2823 43.9117Z" fill="url(#paint3_linear_807_7442)"/>
</g>
</g>
<g style="mix-blend-mode:soft-light" opacity="0.7" filter="url(#filter3_f_807_7442)">
<path d="M126.66 66.4507C126.66 88.31 108.939 106.03 87.0798 106.03C65.2205 106.03 47.5 88.31 47.5 66.4507C47.5 44.5913 65.2205 26.8708 87.0798 26.8708C108.939 26.8708 126.66 44.5913 126.66 66.4507ZM49.6858 66.4507C49.6858 87.1028 66.4277 103.845 87.0798 103.845C107.732 103.845 124.474 87.1028 124.474 66.4507C124.474 45.7985 107.732 29.0567 87.0798 29.0567C66.4277 29.0567 49.6858 45.7985 49.6858 66.4507Z" fill="#D4E5FF"/>
</g>
<g filter="url(#filter4_f_807_7442)">
<path d="M124.287 66.8817C124.287 88.741 106.566 106.462 84.7068 106.462C62.8474 106.462 45.127 88.741 45.127 66.8817C45.127 45.0224 62.8474 27.3019 84.7068 27.3019C106.566 27.3019 124.287 45.0224 124.287 66.8817ZM47.3128 66.8817C47.3128 87.5338 64.0546 104.276 84.7068 104.276C105.359 104.276 122.101 87.5338 122.101 66.8817C122.101 46.2296 105.359 29.4877 84.7068 29.4877C64.0546 29.4877 47.3128 46.2296 47.3128 66.8817Z" fill="#4070CE"/>
</g>
<path d="M126.013 66.6662C126.013 88.5256 108.293 106.246 86.4333 106.246C64.574 106.246 46.8535 88.5256 46.8535 66.6662C46.8535 44.8069 64.574 27.0864 86.4333 27.0864C108.293 27.0864 126.013 44.8069 126.013 66.6662ZM49.0393 66.6662C49.0393 87.3184 65.7812 104.06 86.4333 104.06C107.085 104.06 123.827 87.3184 123.827 66.6662C123.827 46.0141 107.085 29.2722 86.4333 29.2722C65.7812 29.2722 49.0393 46.0141 49.0393 66.6662Z" fill="#D4E5FF"/>
<g style="mix-blend-mode:overlay" opacity="0.3" filter="url(#filter5_f_807_7442)">
<path d="M153.945 85.5395C147.458 95.7205 118.869 78.5295 98.5115 58.9014C78.9792 46.4554 59.6702 16.0216 66.1574 5.84068C72.6447 -4.34028 102.14 -3.37467 121.673 9.07124C141.205 21.5172 160.432 75.3586 153.945 85.5395Z" fill="white"/>
</g>
</g>
</g>
<defs>
<filter id="filter0_f_807_7442" x="23.3055" y="-1.74751" width="130.353" height="129.282" filterUnits="userSpaceOnUse" color-interpolation-filters="sRGB">
<feFlood flood-opacity="0" result="BackgroundImageFix"/>
<feBlend mode="normal" in="SourceGraphic" in2="BackgroundImageFix" result="shape"/>
<feGaussianBlur stdDeviation="1.07847" result="effect1_foregroundBlur_807_7442"/>
</filter>
<filter id="filter1_f_807_7442" x="48.7942" y="33.9887" width="70.1005" height="70.1005" filterUnits="userSpaceOnUse" color-interpolation-filters="sRGB">
<feFlood flood-opacity="0" result="BackgroundImageFix"/>
<feBlend mode="normal" in="SourceGraphic" in2="BackgroundImageFix" result="shape"/>
<feGaussianBlur stdDeviation="1.07847" result="effect1_foregroundBlur_807_7442"/>
</filter>
<filter id="filter2_f_807_7442" x="64.4915" y="40.6564" width="47.224" height="45.3256" filterUnits="userSpaceOnUse" color-interpolation-filters="sRGB">
<feFlood flood-opacity="0" result="BackgroundImageFix"/>
<feBlend mode="normal" in="SourceGraphic" in2="BackgroundImageFix" result="shape"/>
<feGaussianBlur stdDeviation="1.07847" result="effect1_foregroundBlur_807_7442"/>
</filter>
<filter id="filter3_f_807_7442" x="45.3431" y="24.7139" width="83.4735" height="83.4735" filterUnits="userSpaceOnUse" color-interpolation-filters="sRGB">
<feFlood flood-opacity="0" result="BackgroundImageFix"/>
<feBlend mode="normal" in="SourceGraphic" in2="BackgroundImageFix" result="shape"/>
<feGaussianBlur stdDeviation="1.07847" result="effect1_foregroundBlur_807_7442"/>
</filter>
<filter id="filter4_f_807_7442" x="42.97" y="25.1449" width="83.4735" height="83.4735" filterUnits="userSpaceOnUse" color-interpolation-filters="sRGB">
<feFlood flood-opacity="0" result="BackgroundImageFix"/>
<feBlend mode="normal" in="SourceGraphic" in2="BackgroundImageFix" result="shape"/>
<feGaussianBlur stdDeviation="1.07847" result="effect1_foregroundBlur_807_7442"/>
</filter>
<filter id="filter5_f_807_7442" x="43.3081" y="-22.6714" width="133.49" height="132.806" filterUnits="userSpaceOnUse" color-interpolation-filters="sRGB">
<feFlood flood-opacity="0" result="BackgroundImageFix"/>
<feBlend mode="normal" in="SourceGraphic" in2="BackgroundImageFix" result="shape"/>
<feGaussianBlur stdDeviation="10.7847" result="effect1_foregroundBlur_807_7442"/>
</filter>
<linearGradient id="paint0_linear_807_7442" x1="49.4051" y1="111.912" x2="76.3816" y2="132" gradientUnits="userSpaceOnUse">
<stop stop-color="#112437"/>
<stop offset="1" stop-color="#1E4163"/>
</linearGradient>
<linearGradient id="paint1_linear_807_7442" x1="99.1179" y1="136.179" x2="141.213" y2="115.495" gradientUnits="userSpaceOnUse">
<stop stop-color="#112437"/>
<stop offset="1" stop-color="#1E4163"/>
</linearGradient>
<linearGradient id="paint2_linear_807_7442" x1="119.626" y1="33.4012" x2="62.059" y2="85.9708" gradientUnits="userSpaceOnUse">
<stop stop-color="#D4E5FF"/>
<stop offset="1" stop-color="#6DA6FF"/>
</linearGradient>
<linearGradient id="paint3_linear_807_7442" x1="97.4863" y1="43.048" x2="74.8384" y2="82.6279" gradientUnits="userSpaceOnUse">
<stop offset="0.23559" stop-color="#315D8A"/>
<stop offset="0.65356" stop-color="#1A3F65"/>
</linearGradient>
<clipPath id="clip0_807_7442">
<rect width="174" height="174" fill="white" transform="translate(0 -0.000488281)"/>
</clipPath>
</defs>
</svg>
