<svg width="174" height="174" viewBox="0 0 174 174" fill="none" xmlns="http://www.w3.org/2000/svg">
<rect x="3.30273" y="24.1101" width="166.509" height="138.092" rx="17.9786" fill="#4070CE"/>
<mask id="mask0_807_7437" style="mask-type:alpha" maskUnits="userSpaceOnUse" x="3" y="24" width="167" height="139">
<rect x="3.30273" y="24.1101" width="166.509" height="138.092" rx="17.9786" fill="#D4E5FF"/>
</mask>
<g mask="url(#mask0_807_7437)">
<g filter="url(#filter0_f_807_7437)">
<rect x="6.63281" y="19.8921" width="166.509" height="138.092" rx="17.9786" fill="#6DA6FF"/>
</g>
<g style="mix-blend-mode:multiply" filter="url(#filter1_f_807_7437)">
<rect x="20.8418" y="11.0117" width="16.2069" height="34.4119" rx="7.63046" fill="#95ADD8"/>
</g>
<g style="mix-blend-mode:multiply" filter="url(#filter2_f_807_7437)">
<rect x="132.736" y="11.0117" width="16.2069" height="34.4119" rx="7.63046" fill="#95ADD8"/>
</g>
<g style="mix-blend-mode:multiply" filter="url(#filter3_f_807_7437)">
<rect x="95.4375" y="11.0117" width="16.2069" height="34.4119" rx="7.63046" fill="#95ADD8"/>
</g>
<g style="mix-blend-mode:multiply" filter="url(#filter4_f_807_7437)">
<rect x="58.1406" y="11.0117" width="16.2069" height="34.4119" rx="7.63046" fill="#95ADD8"/>
</g>
</g>
<g filter="url(#filter5_f_807_7437)">
<path d="M16.1797 70.5328C16.1797 63.0306 22.4572 57.0549 29.9503 57.4243L131.109 62.411C137.547 62.7284 142.802 67.6742 143.508 74.0814L150.002 132.986C150.859 140.757 144.774 147.549 136.957 147.549H29.3041C22.0557 147.549 16.1797 141.673 16.1797 134.424V70.5328Z" fill="#4070CE"/>
</g>
<mask id="mask1_807_7437" style="mask-type:alpha" maskUnits="userSpaceOnUse" x="18" y="53" width="137" height="92">
<rect x="18.8438" y="53.8594" width="135.428" height="90.8031" rx="13.1244" fill="#D4E5FF"/>
</mask>
<g mask="url(#mask1_807_7437)">
<rect x="18.8438" y="53.8594" width="135.428" height="90.8031" rx="13.1244" fill="#F5F9FF"/>
<g filter="url(#filter6_f_807_7437)">
<rect x="17.0684" y="54.9697" width="135.428" height="90.8031" rx="13.1244" fill="#D4E5FF"/>
</g>
</g>
<rect x="29.6699" y="64.5793" width="29.871" height="29.871" rx="4.71409" fill="#161616"/>
<mask id="mask2_807_7437" style="mask-type:alpha" maskUnits="userSpaceOnUse" x="29" y="64" width="31" height="31">
<rect x="29.6699" y="64.5793" width="29.871" height="29.871" rx="4.71409" fill="#4374D2"/>
</mask>
<g mask="url(#mask2_807_7437)">
<g filter="url(#filter7_f_807_7437)">
<rect x="30.8379" y="63.4111" width="29.871" height="29.871" rx="4.71409" fill="#1E4163"/>
</g>
</g>
<rect x="71.2227" y="64.5795" width="29.871" height="29.871" rx="4.71409" fill="#4374D2"/>
<mask id="mask3_807_7437" style="mask-type:alpha" maskUnits="userSpaceOnUse" x="71" y="64" width="31" height="31">
<rect x="71.2227" y="64.5795" width="29.871" height="29.871" rx="4.71409" fill="#4374D2"/>
</mask>
<g mask="url(#mask3_807_7437)">
<g filter="url(#filter8_f_807_7437)">
<rect x="72.3906" y="63.4109" width="29.871" height="29.871" rx="4.71409" fill="#6DA6FF"/>
</g>
</g>
<rect x="112.775" y="64.5796" width="29.871" height="29.871" rx="4.71409" fill="#4374D2"/>
<mask id="mask4_807_7437" style="mask-type:alpha" maskUnits="userSpaceOnUse" x="112" y="64" width="31" height="31">
<rect x="112.775" y="64.5796" width="29.871" height="29.871" rx="4.71409" fill="#4374D2"/>
</mask>
<g mask="url(#mask4_807_7437)">
<g filter="url(#filter9_f_807_7437)">
<rect x="113.943" y="63.4114" width="29.871" height="29.871" rx="4.71409" fill="#6DA6FF"/>
</g>
</g>
<rect x="29.6699" y="102.794" width="29.871" height="29.871" rx="4.71409" fill="#4374D2"/>
<mask id="mask5_807_7437" style="mask-type:alpha" maskUnits="userSpaceOnUse" x="29" y="102" width="31" height="31">
<rect x="29.6699" y="102.794" width="29.871" height="29.871" rx="4.71409" fill="#4374D2"/>
</mask>
<g mask="url(#mask5_807_7437)">
<g filter="url(#filter10_f_807_7437)">
<rect x="30.8379" y="101.626" width="29.871" height="29.871" rx="4.71409" fill="#6DA6FF"/>
</g>
</g>
<rect x="71.2227" y="102.794" width="29.871" height="29.871" rx="4.71409" fill="#4374D2"/>
<mask id="mask6_807_7437" style="mask-type:alpha" maskUnits="userSpaceOnUse" x="71" y="102" width="31" height="31">
<rect x="71.2227" y="102.794" width="29.871" height="29.871" rx="4.71409" fill="#4374D2"/>
</mask>
<g mask="url(#mask6_807_7437)">
<g filter="url(#filter11_f_807_7437)">
<rect x="72.3906" y="101.626" width="29.871" height="29.871" rx="4.71409" fill="#6DA6FF"/>
</g>
</g>
<rect x="112.775" y="102.794" width="29.871" height="29.871" rx="4.71409" fill="#161616"/>
<mask id="mask7_807_7437" style="mask-type:alpha" maskUnits="userSpaceOnUse" x="112" y="102" width="31" height="31">
<rect x="112.775" y="102.794" width="29.871" height="29.871" rx="4.71409" fill="#4374D2"/>
</mask>
<g mask="url(#mask7_807_7437)">
<g filter="url(#filter12_f_807_7437)">
<rect x="113.943" y="101.626" width="29.871" height="29.871" rx="4.71409" fill="#1E4163"/>
</g>
</g>
<g filter="url(#filter13_f_807_7437)">
<rect x="22.6172" y="30.5493" width="16.2069" height="15.7629" rx="7.63046" fill="#161616"/>
</g>
<g filter="url(#filter14_f_807_7437)">
<rect x="134.512" y="30.5493" width="16.2069" height="15.7629" rx="7.63046" fill="#161616"/>
</g>
<g filter="url(#filter15_f_807_7437)">
<rect x="97.2129" y="30.5493" width="16.2069" height="15.7629" rx="7.63046" fill="#161616"/>
</g>
<g filter="url(#filter16_f_807_7437)">
<rect x="59.916" y="30.5492" width="16.2069" height="15.7629" rx="7.63046" fill="#161616"/>
</g>
<rect x="22.6172" y="11.012" width="16.2069" height="34.4119" rx="7.63046" fill="#5083DF"/>
<mask id="mask8_807_7437" style="mask-type:alpha" maskUnits="userSpaceOnUse" x="22" y="11" width="17" height="35">
<rect x="22.6172" y="11.012" width="16.2069" height="34.4119" rx="7.63046" fill="#D4E5FF"/>
</mask>
<g mask="url(#mask8_807_7437)">
<g filter="url(#filter17_f_807_7437)">
<rect x="24.6152" y="5.90576" width="16.2069" height="34.4119" rx="7.63046" fill="url(#paint0_linear_807_7437)"/>
</g>
</g>
<rect x="134.512" y="11.0117" width="16.2069" height="34.4119" rx="7.63046" fill="#5083DF"/>
<mask id="mask9_807_7437" style="mask-type:alpha" maskUnits="userSpaceOnUse" x="134" y="11" width="17" height="35">
<rect x="134.512" y="11.0117" width="16.2069" height="34.4119" rx="7.63046" fill="#D4E5FF"/>
</mask>
<g mask="url(#mask9_807_7437)">
<g filter="url(#filter18_f_807_7437)">
<rect x="136.51" y="5.90552" width="16.2069" height="34.4119" rx="7.63046" fill="url(#paint1_linear_807_7437)"/>
</g>
</g>
<rect x="97.2129" y="11.0117" width="16.2069" height="34.4119" rx="7.63046" fill="#5083DF"/>
<mask id="mask10_807_7437" style="mask-type:alpha" maskUnits="userSpaceOnUse" x="97" y="11" width="17" height="35">
<rect x="97.2129" y="11.0117" width="16.2069" height="34.4119" rx="7.63046" fill="#D4E5FF"/>
</mask>
<g mask="url(#mask10_807_7437)">
<g filter="url(#filter19_f_807_7437)">
<rect x="99.2109" y="5.90552" width="16.2069" height="34.4119" rx="7.63046" fill="url(#paint2_linear_807_7437)"/>
</g>
</g>
<rect x="59.916" y="11.0117" width="16.2069" height="34.4119" rx="7.63046" fill="#5083DF"/>
<mask id="mask11_807_7437" style="mask-type:alpha" maskUnits="userSpaceOnUse" x="59" y="11" width="18" height="35">
<rect x="59.916" y="11.0117" width="16.2069" height="34.4119" rx="7.63046" fill="#D4E5FF"/>
</mask>
<g mask="url(#mask11_807_7437)">
<g filter="url(#filter20_f_807_7437)">
<rect x="61.9141" y="5.90552" width="16.2069" height="34.4119" rx="7.63046" fill="url(#paint3_linear_807_7437)"/>
</g>
</g>
<mask id="mask12_807_7437" style="mask-type:alpha" maskUnits="userSpaceOnUse" x="3" y="11" width="167" height="152">
<path fill-rule="evenodd" clip-rule="evenodd" d="M22.6172 18.6419C22.6172 14.4277 26.0335 11.0115 30.2477 11.0115H31.1936C35.4078 11.0115 38.8241 14.4277 38.8241 18.6419V24.1101H59.9159V18.6419C59.9159 14.4278 63.3322 11.0115 67.5464 11.0115H68.4923C72.7065 11.0115 76.1228 14.4278 76.1228 18.6419V24.1101H97.2129V18.6419C97.2129 14.4277 100.629 11.0115 104.843 11.0115H105.789C110.004 11.0115 113.42 14.4277 113.42 18.6419V24.1101H134.512V18.6419C134.512 14.4277 137.928 11.0115 142.142 11.0115H143.088C147.302 11.0115 150.719 14.4277 150.719 18.6419V24.1101H151.833C161.763 24.1101 169.812 32.1594 169.812 42.0887V144.223C169.812 154.152 161.763 162.202 151.833 162.202H21.2814C11.352 162.202 3.30273 154.152 3.30273 144.223V42.0887C3.30273 32.1594 11.352 24.1101 21.2814 24.1101H22.6172V18.6419Z" fill="#5083DF"/>
</mask>
<g mask="url(#mask12_807_7437)">
<g style="mix-blend-mode:overlay" opacity="0.4" filter="url(#filter21_f_807_7437)">
<path d="M128.585 78.2524C103.885 47.0378 53.4766 9.34668 53.4766 9.34668H177.804V165.632C177.804 165.632 152.888 108.965 128.585 78.2524Z" fill="white"/>
</g>
</g>
<defs>
<filter id="filter0_f_807_7437" x="-1.72934" y="11.5299" width="183.234" height="154.816" filterUnits="userSpaceOnUse" color-interpolation-filters="sRGB">
<feFlood flood-opacity="0" result="BackgroundImageFix"/>
<feBlend mode="normal" in="SourceGraphic" in2="BackgroundImageFix" result="shape"/>
<feGaussianBlur stdDeviation="4.18108" result="effect1_foregroundBlur_807_7437"/>
</filter>
<filter id="filter1_f_807_7437" x="18.7513" y="8.92118" width="20.3881" height="38.5929" filterUnits="userSpaceOnUse" color-interpolation-filters="sRGB">
<feFlood flood-opacity="0" result="BackgroundImageFix"/>
<feBlend mode="normal" in="SourceGraphic" in2="BackgroundImageFix" result="shape"/>
<feGaussianBlur stdDeviation="1.04527" result="effect1_foregroundBlur_807_7437"/>
</filter>
<filter id="filter2_f_807_7437" x="130.646" y="8.92118" width="20.3881" height="38.5929" filterUnits="userSpaceOnUse" color-interpolation-filters="sRGB">
<feFlood flood-opacity="0" result="BackgroundImageFix"/>
<feBlend mode="normal" in="SourceGraphic" in2="BackgroundImageFix" result="shape"/>
<feGaussianBlur stdDeviation="1.04527" result="effect1_foregroundBlur_807_7437"/>
</filter>
<filter id="filter3_f_807_7437" x="93.347" y="8.92118" width="20.3881" height="38.5929" filterUnits="userSpaceOnUse" color-interpolation-filters="sRGB">
<feFlood flood-opacity="0" result="BackgroundImageFix"/>
<feBlend mode="normal" in="SourceGraphic" in2="BackgroundImageFix" result="shape"/>
<feGaussianBlur stdDeviation="1.04527" result="effect1_foregroundBlur_807_7437"/>
</filter>
<filter id="filter4_f_807_7437" x="56.0501" y="8.92118" width="20.3881" height="38.5929" filterUnits="userSpaceOnUse" color-interpolation-filters="sRGB">
<feFlood flood-opacity="0" result="BackgroundImageFix"/>
<feBlend mode="normal" in="SourceGraphic" in2="BackgroundImageFix" result="shape"/>
<feGaussianBlur stdDeviation="1.04527" result="effect1_foregroundBlur_807_7437"/>
</filter>
<filter id="filter5_f_807_7437" x="5.727" y="46.9554" width="154.808" height="111.046" filterUnits="userSpaceOnUse" color-interpolation-filters="sRGB">
<feFlood flood-opacity="0" result="BackgroundImageFix"/>
<feBlend mode="normal" in="SourceGraphic" in2="BackgroundImageFix" result="shape"/>
<feGaussianBlur stdDeviation="5.22635" result="effect1_foregroundBlur_807_7437"/>
</filter>
<filter id="filter6_f_807_7437" x="14.9778" y="52.8792" width="139.609" height="94.9842" filterUnits="userSpaceOnUse" color-interpolation-filters="sRGB">
<feFlood flood-opacity="0" result="BackgroundImageFix"/>
<feBlend mode="normal" in="SourceGraphic" in2="BackgroundImageFix" result="shape"/>
<feGaussianBlur stdDeviation="1.04527" result="effect1_foregroundBlur_807_7437"/>
</filter>
<filter id="filter7_f_807_7437" x="29.2665" y="61.8398" width="33.0138" height="33.0137" filterUnits="userSpaceOnUse" color-interpolation-filters="sRGB">
<feFlood flood-opacity="0" result="BackgroundImageFix"/>
<feBlend mode="normal" in="SourceGraphic" in2="BackgroundImageFix" result="shape"/>
<feGaussianBlur stdDeviation="0.785682" result="effect1_foregroundBlur_807_7437"/>
</filter>
<filter id="filter8_f_807_7437" x="70.8193" y="61.8395" width="33.0138" height="33.0137" filterUnits="userSpaceOnUse" color-interpolation-filters="sRGB">
<feFlood flood-opacity="0" result="BackgroundImageFix"/>
<feBlend mode="normal" in="SourceGraphic" in2="BackgroundImageFix" result="shape"/>
<feGaussianBlur stdDeviation="0.785682" result="effect1_foregroundBlur_807_7437"/>
</filter>
<filter id="filter9_f_807_7437" x="112.372" y="61.84" width="33.0138" height="33.0137" filterUnits="userSpaceOnUse" color-interpolation-filters="sRGB">
<feFlood flood-opacity="0" result="BackgroundImageFix"/>
<feBlend mode="normal" in="SourceGraphic" in2="BackgroundImageFix" result="shape"/>
<feGaussianBlur stdDeviation="0.785682" result="effect1_foregroundBlur_807_7437"/>
</filter>
<filter id="filter10_f_807_7437" x="29.2665" y="100.055" width="33.0138" height="33.0137" filterUnits="userSpaceOnUse" color-interpolation-filters="sRGB">
<feFlood flood-opacity="0" result="BackgroundImageFix"/>
<feBlend mode="normal" in="SourceGraphic" in2="BackgroundImageFix" result="shape"/>
<feGaussianBlur stdDeviation="0.785682" result="effect1_foregroundBlur_807_7437"/>
</filter>
<filter id="filter11_f_807_7437" x="70.8193" y="100.055" width="33.0138" height="33.0137" filterUnits="userSpaceOnUse" color-interpolation-filters="sRGB">
<feFlood flood-opacity="0" result="BackgroundImageFix"/>
<feBlend mode="normal" in="SourceGraphic" in2="BackgroundImageFix" result="shape"/>
<feGaussianBlur stdDeviation="0.785682" result="effect1_foregroundBlur_807_7437"/>
</filter>
<filter id="filter12_f_807_7437" x="112.372" y="100.055" width="33.0138" height="33.0137" filterUnits="userSpaceOnUse" color-interpolation-filters="sRGB">
<feFlood flood-opacity="0" result="BackgroundImageFix"/>
<feBlend mode="normal" in="SourceGraphic" in2="BackgroundImageFix" result="shape"/>
<feGaussianBlur stdDeviation="0.785682" result="effect1_foregroundBlur_807_7437"/>
</filter>
<filter id="filter13_f_807_7437" x="21.5719" y="29.504" width="18.2976" height="17.8534" filterUnits="userSpaceOnUse" color-interpolation-filters="sRGB">
<feFlood flood-opacity="0" result="BackgroundImageFix"/>
<feBlend mode="normal" in="SourceGraphic" in2="BackgroundImageFix" result="shape"/>
<feGaussianBlur stdDeviation="0.522635" result="effect1_foregroundBlur_807_7437"/>
</filter>
<filter id="filter14_f_807_7437" x="133.466" y="29.504" width="18.2976" height="17.8534" filterUnits="userSpaceOnUse" color-interpolation-filters="sRGB">
<feFlood flood-opacity="0" result="BackgroundImageFix"/>
<feBlend mode="normal" in="SourceGraphic" in2="BackgroundImageFix" result="shape"/>
<feGaussianBlur stdDeviation="0.522635" result="effect1_foregroundBlur_807_7437"/>
</filter>
<filter id="filter15_f_807_7437" x="96.1676" y="29.504" width="18.2976" height="17.8534" filterUnits="userSpaceOnUse" color-interpolation-filters="sRGB">
<feFlood flood-opacity="0" result="BackgroundImageFix"/>
<feBlend mode="normal" in="SourceGraphic" in2="BackgroundImageFix" result="shape"/>
<feGaussianBlur stdDeviation="0.522635" result="effect1_foregroundBlur_807_7437"/>
</filter>
<filter id="filter16_f_807_7437" x="58.8707" y="29.5039" width="18.2976" height="17.8534" filterUnits="userSpaceOnUse" color-interpolation-filters="sRGB">
<feFlood flood-opacity="0" result="BackgroundImageFix"/>
<feBlend mode="normal" in="SourceGraphic" in2="BackgroundImageFix" result="shape"/>
<feGaussianBlur stdDeviation="0.522635" result="effect1_foregroundBlur_807_7437"/>
</filter>
<filter id="filter17_f_807_7437" x="20.4342" y="1.72468" width="24.5692" height="42.774" filterUnits="userSpaceOnUse" color-interpolation-filters="sRGB">
<feFlood flood-opacity="0" result="BackgroundImageFix"/>
<feBlend mode="normal" in="SourceGraphic" in2="BackgroundImageFix" result="shape"/>
<feGaussianBlur stdDeviation="2.09054" result="effect1_foregroundBlur_807_7437"/>
</filter>
<filter id="filter18_f_807_7437" x="132.329" y="1.72444" width="24.5692" height="42.774" filterUnits="userSpaceOnUse" color-interpolation-filters="sRGB">
<feFlood flood-opacity="0" result="BackgroundImageFix"/>
<feBlend mode="normal" in="SourceGraphic" in2="BackgroundImageFix" result="shape"/>
<feGaussianBlur stdDeviation="2.09054" result="effect1_foregroundBlur_807_7437"/>
</filter>
<filter id="filter19_f_807_7437" x="95.0299" y="1.72444" width="24.5692" height="42.774" filterUnits="userSpaceOnUse" color-interpolation-filters="sRGB">
<feFlood flood-opacity="0" result="BackgroundImageFix"/>
<feBlend mode="normal" in="SourceGraphic" in2="BackgroundImageFix" result="shape"/>
<feGaussianBlur stdDeviation="2.09054" result="effect1_foregroundBlur_807_7437"/>
</filter>
<filter id="filter20_f_807_7437" x="57.733" y="1.72444" width="24.5692" height="42.774" filterUnits="userSpaceOnUse" color-interpolation-filters="sRGB">
<feFlood flood-opacity="0" result="BackgroundImageFix"/>
<feBlend mode="normal" in="SourceGraphic" in2="BackgroundImageFix" result="shape"/>
<feGaussianBlur stdDeviation="2.09054" result="effect1_foregroundBlur_807_7437"/>
</filter>
<filter id="filter21_f_807_7437" x="-9.23958" y="-53.3695" width="249.759" height="281.717" filterUnits="userSpaceOnUse" color-interpolation-filters="sRGB">
<feFlood flood-opacity="0" result="BackgroundImageFix"/>
<feBlend mode="normal" in="SourceGraphic" in2="BackgroundImageFix" result="shape"/>
<feGaussianBlur stdDeviation="31.3581" result="effect1_foregroundBlur_807_7437"/>
</filter>
<linearGradient id="paint0_linear_807_7437" x1="35.4938" y1="13.3432" x2="28.8335" y2="38.5416" gradientUnits="userSpaceOnUse">
<stop offset="0.413537" stop-color="#D4E5FF"/>
<stop offset="1" stop-color="#D4E5FF" stop-opacity="0"/>
</linearGradient>
<linearGradient id="paint1_linear_807_7437" x1="147.388" y1="13.3429" x2="140.728" y2="38.5413" gradientUnits="userSpaceOnUse">
<stop offset="0.413537" stop-color="#D4E5FF"/>
<stop offset="1" stop-color="#D4E5FF" stop-opacity="0"/>
</linearGradient>
<linearGradient id="paint2_linear_807_7437" x1="110.09" y1="13.3429" x2="103.429" y2="38.5413" gradientUnits="userSpaceOnUse">
<stop offset="0.413537" stop-color="#D4E5FF"/>
<stop offset="1" stop-color="#D4E5FF" stop-opacity="0"/>
</linearGradient>
<linearGradient id="paint3_linear_807_7437" x1="72.7927" y1="13.3429" x2="66.1323" y2="38.5413" gradientUnits="userSpaceOnUse">
<stop offset="0.413537" stop-color="#D4E5FF"/>
<stop offset="1" stop-color="#D4E5FF" stop-opacity="0"/>
</linearGradient>
</defs>
</svg>
