<svg width="174" height="174" viewBox="0 0 174 174" fill="none" xmlns="http://www.w3.org/2000/svg">
<path fill-rule="evenodd" clip-rule="evenodd" d="M81.1527 19.4885C78.088 19.4885 75.6035 21.973 75.6035 25.0377V86.3234C75.6035 89.3881 78.088 91.8725 81.1527 91.8725H139.798C140.252 91.8725 140.682 92.0728 140.974 92.4198L154.607 108.604C155.877 110.113 158.339 109.215 158.339 107.242V93.4107C158.339 92.5612 159.028 91.8725 159.877 91.8725H161.056C164.121 91.8725 166.606 89.3881 166.606 86.3234V25.0377C166.606 21.973 164.121 19.4885 161.056 19.4885H81.1527Z" fill="#4A7CD9"/>
<mask id="mask0_807_7457" style="mask-type:alpha" maskUnits="userSpaceOnUse" x="75" y="19" width="92" height="91">
<path fill-rule="evenodd" clip-rule="evenodd" d="M81.1527 19.4885C78.088 19.4885 75.6035 21.973 75.6035 25.0377V86.3234C75.6035 89.3881 78.088 91.8725 81.1527 91.8725H139.798C140.252 91.8725 140.682 92.0728 140.974 92.4198L154.607 108.604C155.877 110.113 158.339 109.215 158.339 107.242V93.4107C158.339 92.5612 159.028 91.8725 159.877 91.8725H161.056C164.121 91.8725 166.606 89.3881 166.606 86.3234V25.0377C166.606 21.973 164.121 19.4885 161.056 19.4885H81.1527Z" fill="#4070CE"/>
</mask>
<g mask="url(#mask0_807_7457)">
<g filter="url(#filter0_f_807_7457)">
<path fill-rule="evenodd" clip-rule="evenodd" d="M83.762 19.4885C80.6973 19.4885 78.2129 21.973 78.2129 25.0377V83.7134C78.2129 86.7781 80.6973 89.2625 83.762 89.2625H141.969C142.454 89.2625 142.91 89.4908 143.2 89.8785L154.724 105.261C155.943 106.888 158.531 106.026 158.531 103.993V90.8007C158.531 89.9512 159.22 89.2625 160.069 89.2625H163.666C166.73 89.2625 169.215 86.7781 169.215 83.7134V25.0377C169.215 21.973 166.73 19.4885 163.666 19.4885H83.762Z" fill="#6DA6FF"/>
</g>
</g>
<path fill-rule="evenodd" clip-rule="evenodd" d="M89.6954 40.5049C89.6954 38.6997 91.1588 37.2363 92.964 37.2363H149.106C150.911 37.2363 152.374 38.6997 152.374 40.5049C152.374 42.31 150.911 43.7734 149.106 43.7734H92.964C91.1588 43.7734 89.6954 42.31 89.6954 40.5049ZM89.6953 54.5986C89.6953 52.7935 91.1587 51.3301 92.9638 51.3301H149.106C150.911 51.3301 152.374 52.7935 152.374 54.5986C152.374 56.4038 150.911 57.8672 149.106 57.8672H92.9638C91.1587 57.8672 89.6953 56.4038 89.6953 54.5986ZM92.9638 65.3658C91.1587 65.3658 89.6953 66.8291 89.6953 68.6343C89.6953 70.4395 91.1587 71.9028 92.9638 71.9028H128.341C130.146 71.9028 131.609 70.4395 131.609 68.6343C131.609 66.8291 130.146 65.3658 128.341 65.3658H92.9638Z" fill="#6EA6FF"/>
<mask id="mask1_807_7457" style="mask-type:alpha" maskUnits="userSpaceOnUse" x="89" y="37" width="64" height="35">
<path fill-rule="evenodd" clip-rule="evenodd" d="M89.6954 40.5049C89.6954 38.6997 91.1588 37.2363 92.964 37.2363H149.106C150.911 37.2363 152.374 38.6997 152.374 40.5049C152.374 42.31 150.911 43.7734 149.106 43.7734H92.964C91.1588 43.7734 89.6954 42.31 89.6954 40.5049ZM89.6953 54.5986C89.6953 52.7935 91.1587 51.3301 92.9638 51.3301H149.106C150.911 51.3301 152.374 52.7935 152.374 54.5986C152.374 56.4038 150.911 57.8672 149.106 57.8672H92.9638C91.1587 57.8672 89.6953 56.4038 89.6953 54.5986ZM92.9638 65.3658C91.1587 65.3658 89.6953 66.8291 89.6953 68.6343C89.6953 70.4395 91.1587 71.9028 92.9638 71.9028H128.341C130.146 71.9028 131.609 70.4395 131.609 68.6343C131.609 66.8291 130.146 65.3658 128.341 65.3658H92.9638Z" fill="#112437"/>
</mask>
<g mask="url(#mask1_807_7457)">
<g filter="url(#filter1_f_807_7457)">
<path fill-rule="evenodd" clip-rule="evenodd" d="M91.7852 38.4165C91.7852 36.6113 93.2485 35.1479 95.0537 35.1479H151.196C153.001 35.1479 154.464 36.6113 154.464 38.4165C154.464 40.2216 153.001 41.685 151.196 41.685H95.0537C93.2485 41.685 91.7852 40.2216 91.7852 38.4165ZM91.7852 52.5104C91.7852 50.7052 93.2485 49.2418 95.0537 49.2418H151.196C153.001 49.2418 154.464 50.7052 154.464 52.5104C154.464 54.3155 153.001 55.7789 151.196 55.7789H95.0537C93.2485 55.7789 91.7852 54.3155 91.7852 52.5104ZM95.0537 63.2775C93.2485 63.2775 91.7852 64.7409 91.7852 66.546C91.7852 68.3512 93.2485 69.8146 95.0537 69.8146H130.431C132.236 69.8146 133.699 68.3512 133.699 66.546C133.699 64.7409 132.236 63.2775 130.431 63.2775H95.0537Z" fill="#D4E5FF"/>
</g>
</g>
<path fill-rule="evenodd" clip-rule="evenodd" d="M92.6735 64.5543C95.7382 64.5543 98.2227 67.0388 98.2227 70.1035V131.389C98.2227 134.454 95.7382 136.938 92.6735 136.938H34.111C33.6574 136.938 33.2268 137.139 32.9346 137.486L19.2468 153.736C17.976 155.245 15.5143 154.346 15.5143 152.374V138.476C15.5143 137.627 14.8256 136.938 13.9761 136.938H12.7698C9.70509 136.938 7.22066 134.454 7.22066 131.389V70.1035C7.22066 67.0388 9.7051 64.5543 12.7698 64.5543H92.6735Z" fill="#6DA6FF"/>
<mask id="mask2_807_7457" style="mask-type:alpha" maskUnits="userSpaceOnUse" x="7" y="64" width="92" height="91">
<path fill-rule="evenodd" clip-rule="evenodd" d="M92.6735 64.5543C95.7382 64.5543 98.2227 67.0388 98.2227 70.1035V131.389C98.2227 134.454 95.7382 136.938 92.6735 136.938H34.111C33.6574 136.938 33.2268 137.139 32.9346 137.486L19.2468 153.736C17.976 155.245 15.5143 154.346 15.5143 152.374V138.476C15.5143 137.627 14.8256 136.938 13.9761 136.938H12.7698C9.70509 136.938 7.22066 134.454 7.22066 131.389V70.1035C7.22066 67.0388 9.7051 64.5543 12.7698 64.5543H92.6735Z" fill="#4070CE"/>
</mask>
<g mask="url(#mask2_807_7457)">
<g filter="url(#filter2_f_807_7457)">
<path fill-rule="evenodd" clip-rule="evenodd" d="M95.4587 64.5544C98.5234 64.5544 101.008 67.0389 101.008 70.1036V128.779C101.008 131.844 98.5234 134.328 95.4587 134.328H37.3181C36.8337 134.328 36.3775 134.557 36.0871 134.944L24.5146 150.393C23.2956 152.02 20.707 151.158 20.707 149.125V135.867C20.707 135.017 20.0183 134.328 19.1688 134.328H15.555C12.4902 134.328 10.0058 131.844 10.0058 128.779V70.1036C10.0058 67.0389 12.4903 64.5544 15.555 64.5544H95.4587Z" fill="#D4E5FF"/>
</g>
<path fill-rule="evenodd" clip-rule="evenodd" d="M37.4756 98.7103C37.4756 101.851 34.9294 104.397 31.7886 104.397C28.6477 104.397 26.1016 101.851 26.1016 98.7103C26.1016 95.5695 28.6477 93.0233 31.7886 93.0233C34.9294 93.0233 37.4756 95.5695 37.4756 98.7103ZM59.9912 98.7103C59.9912 101.851 57.445 104.397 54.3042 104.397C51.1633 104.397 48.6172 101.851 48.6172 98.7103C48.6172 95.5695 51.1633 93.0233 54.3042 93.0233C57.445 93.0233 59.9912 95.5695 59.9912 98.7103ZM74.2671 104.397C77.4079 104.397 79.9541 101.851 79.9541 98.7103C79.9541 95.5695 77.4079 93.0233 74.2671 93.0233C71.1262 93.0233 68.5801 95.5695 68.5801 98.7103C68.5801 101.851 71.1262 104.397 74.2671 104.397Z" fill="#112437"/>
<mask id="mask3_807_7457" style="mask-type:alpha" maskUnits="userSpaceOnUse" x="26" y="93" width="54" height="12">
<path fill-rule="evenodd" clip-rule="evenodd" d="M37.4756 98.7103C37.4756 101.851 34.9294 104.397 31.7886 104.397C28.6477 104.397 26.1016 101.851 26.1016 98.7103C26.1016 95.5695 28.6477 93.0233 31.7886 93.0233C34.9294 93.0233 37.4756 95.5695 37.4756 98.7103ZM59.9912 98.7103C59.9912 101.851 57.445 104.397 54.3042 104.397C51.1633 104.397 48.6172 101.851 48.6172 98.7103C48.6172 95.5695 51.1633 93.0233 54.3042 93.0233C57.445 93.0233 59.9912 95.5695 59.9912 98.7103ZM74.2671 104.397C77.4079 104.397 79.9541 101.851 79.9541 98.7103C79.9541 95.5695 77.4079 93.0233 74.2671 93.0233C71.1262 93.0233 68.5801 95.5695 68.5801 98.7103C68.5801 101.851 71.1262 104.397 74.2671 104.397Z" fill="#6DA6FF"/>
</mask>
<g mask="url(#mask3_807_7457)">
<g filter="url(#filter3_f_807_7457)">
<path fill-rule="evenodd" clip-rule="evenodd" d="M39.0713 98.1117C39.0713 101.253 36.5251 103.799 33.3843 103.799C30.2434 103.799 27.6973 101.253 27.6973 98.1117C27.6973 94.9708 30.2434 92.4247 33.3843 92.4247C36.5251 92.4247 39.0713 94.9708 39.0713 98.1117ZM61.5869 98.1117C61.5869 101.253 59.0407 103.799 55.8999 103.799C52.759 103.799 50.2129 101.253 50.2129 98.1117C50.2129 94.9708 52.759 92.4247 55.8999 92.4247C59.0407 92.4247 61.5869 94.9708 61.5869 98.1117ZM75.8628 103.799C79.0036 103.799 81.5498 101.253 81.5498 98.1117C81.5498 94.9708 79.0036 92.4247 75.8628 92.4247C72.7219 92.4247 70.1758 94.9708 70.1758 98.1117C70.1758 101.253 72.7219 103.799 75.8628 103.799Z" fill="#1D3F60"/>
</g>
</g>
</g>
<defs>
<filter id="filter0_f_807_7457" x="72.4449" y="13.7205" width="102.538" height="98.1598" filterUnits="userSpaceOnUse" color-interpolation-filters="sRGB">
<feFlood flood-opacity="0" result="BackgroundImageFix"/>
<feBlend mode="normal" in="SourceGraphic" in2="BackgroundImageFix" result="shape"/>
<feGaussianBlur stdDeviation="2.884" result="effect1_foregroundBlur_807_7457"/>
</filter>
<filter id="filter1_f_807_7457" x="90.0452" y="33.4079" width="66.159" height="38.1466" filterUnits="userSpaceOnUse" color-interpolation-filters="sRGB">
<feFlood flood-opacity="0" result="BackgroundImageFix"/>
<feBlend mode="normal" in="SourceGraphic" in2="BackgroundImageFix" result="shape"/>
<feGaussianBlur stdDeviation="0.87" result="effect1_foregroundBlur_807_7457"/>
</filter>
<filter id="filter2_f_807_7457" x="4.23786" y="58.7864" width="102.538" height="98.2255" filterUnits="userSpaceOnUse" color-interpolation-filters="sRGB">
<feFlood flood-opacity="0" result="BackgroundImageFix"/>
<feBlend mode="normal" in="SourceGraphic" in2="BackgroundImageFix" result="shape"/>
<feGaussianBlur stdDeviation="2.884" result="effect1_foregroundBlur_807_7457"/>
</filter>
<filter id="filter3_f_807_7457" x="26.5" y="91.2274" width="56.2471" height="13.7685" filterUnits="userSpaceOnUse" color-interpolation-filters="sRGB">
<feFlood flood-opacity="0" result="BackgroundImageFix"/>
<feBlend mode="normal" in="SourceGraphic" in2="BackgroundImageFix" result="shape"/>
<feGaussianBlur stdDeviation="0.598631" result="effect1_foregroundBlur_807_7457"/>
</filter>
</defs>
</svg>
